<?xml version="1.0" encoding="UTF-8" standalone="no"?>
<!-- Created with Inkscape (http://www.inkscape.org/) -->

<svg
   xmlns:dc="http://purl.org/dc/elements/1.1/"
   xmlns:cc="http://creativecommons.org/ns#"
   xmlns:rdf="http://www.w3.org/1999/02/22-rdf-syntax-ns#"
   xmlns:svg="http://www.w3.org/2000/svg"
   xmlns="http://www.w3.org/2000/svg"
   xmlns:sodipodi="http://sodipodi.sourceforge.net/DTD/sodipodi-0.dtd"
   xmlns:inkscape="http://www.inkscape.org/namespaces/inkscape"
   width="297mm"
   height="210mm"
   viewBox="0 0 297 210"
   version="1.1"
   id="svg8"
   inkscape:version="0.92.4 (5da689c313, 2019-01-14)"
   sodipodi:docname="ricklogo.svg">
  <defs
     id="defs2" />
  <sodipodi:namedview
     id="base"
     pagecolor="#ffffff"
     bordercolor="#666666"
     borderopacity="1.0"
     inkscape:pageopacity="0.0"
     inkscape:pageshadow="2"
     inkscape:zoom="0.81952086"
     inkscape:cx="562.99069"
     inkscape:cy="376.5363"
     inkscape:document-units="mm"
     inkscape:current-layer="layer1"
     showgrid="false"
     inkscape:window-width="1366"
     inkscape:window-height="716"
     inkscape:window-x="-8"
     inkscape:window-y="-8"
     inkscape:window-maximized="1" />
  <metadata
     id="metadata5">
    <rdf:RDF>
      <cc:Work
         rdf:about="">
        <dc:format>image/svg+xml</dc:format>
        <dc:type
           rdf:resource="http://purl.org/dc/dcmitype/StillImage" />
        <dc:title></dc:title>
      </cc:Work>
    </rdf:RDF>
  </metadata>
  <g
     inkscape:label="Layer 1"
     inkscape:groupmode="layer"
     id="layer1"
     transform="translate(0,-87)">
    <g
       id="g78"
       inkscape:export-xdpi="90"
       inkscape:export-ydpi="90">
      <path
         id="path20"
         d="m 99.088353,180.41233 a 10,10 0 0 0 -9.999908,9.9999 10,10 0 0 0 9.999908,10.00042 10,10 0 0 0 5.152657,-1.44177 l -2.32389,-3.73569 h -1.13688 v 3.8654 H 98.644451 V 189.0273 h 2.935219 c 1.36885,0 2.38171,0.25017 3.03858,0.75086 0.65686,0.49609 0.98495,1.25189 0.98495,2.26705 0,0.59255 -0.16272,1.12046 -0.48886,1.5844 -0.32613,0.45934 -0.78778,0.82028 -1.38493,1.0821 0.89858,1.34243 1.55162,2.3122 2.07894,3.09128 a 10,10 0 0 0 3.27991,-7.39076 10,10 0 0 0 -9.999907,-9.9999 z m 1.691887,10.36474 v 2.72179 h 0.68884 c 0.67524,0 1.17398,-0.11236 1.49552,-0.33744 0.32154,-0.22508 0.48214,-0.57912 0.48214,-1.06143 0,-0.47773 -0.16536,-0.81747 -0.49609,-1.01958 -0.32614,-0.20211 -0.83389,-0.30334 -1.52291,-0.30334 z"
         style="fill:#000000;stroke-width:0.25684094"
         inkscape:connector-curvature="0" />
      <text
         id="text24"
         y="195.78957"
         x="115.99641"
         style="font-style:normal;font-weight:normal;font-size:10.58333302px;line-height:1.25;font-family:sans-serif;letter-spacing:0px;word-spacing:0px;fill:#000000;fill-opacity:1;stroke:none;stroke-width:0.26458332"
         xml:space="preserve"><tspan
           style="font-style:normal;font-variant:normal;font-weight:normal;font-stretch:normal;font-size:14.11111069px;font-family:'Open Sans';-inkscape-font-specification:'Open Sans';stroke-width:0.26458332"
           y="195.78957"
           x="115.99641"
           id="tspan22"
           sodipodi:role="line"><tspan
   id="tspan26"
   style="font-style:normal;font-variant:normal;font-weight:bold;font-stretch:normal;font-size:14.11111069px;font-family:'Open Sans';-inkscape-font-specification:'Open Sans Bold'">RICK</tspan>PANTOJA</tspan></text>
    </g>
  </g>
</svg>
